<svg width="34" height="38" viewBox="0 0 34 38" fill="none" xmlns="http://www.w3.org/2000/svg">
<path d="M17 38C19.6805 38 21.8549 35.8736 21.8549 33.25H12.1451C12.1451 35.8736 14.3195 38 17 38ZM33.3465 26.8887C31.8803 25.3479 29.1368 23.0301 29.1368 15.4375C29.1368 9.6707 25.0021 5.0543 19.427 3.92172V2.375C19.427 1.06355 18.3403 0 17 0C15.6597 0 14.573 1.06355 14.573 2.375V3.92172C8.99788 5.0543 4.86325 9.6707 4.86325 15.4375C4.86325 23.0301 2.11973 25.3479 0.653488 26.8887C0.198132 27.3674 -0.00374216 27.9396 5.24713e-05 28.5C0.00840066 29.7172 0.985139 30.875 2.43621 30.875H31.5638C33.0149 30.875 33.9924 29.7172 34 28.5C34.0037 27.9396 33.8019 27.3667 33.3465 26.8887Z" fill="#B13EB3"/>
</svg>
