<svg width="30" height="30" viewBox="0 0 30 30" fill="none" xmlns="http://www.w3.org/2000/svg">
<rect width="30" height="30" rx="15" fill="#5F2FC0"/>
<path d="M8 11.9204V11.3605C8 10.8966 8.29381 10.5206 8.65625 10.5206H18.5V8.84075C18.5 8.09298 19.2082 7.7194 19.6203 8.24683L21.8078 11.0465C22.0641 11.3745 22.0641 11.9064 21.8078 12.2343L19.6203 15.034C19.2097 15.5594 18.5 15.191 18.5 14.4402V12.7603H8.65625C8.29381 12.7603 8 12.3843 8 11.9204ZM21.3438 17.2399H11.5V15.56C11.5 14.8141 10.7928 14.4374 10.3797 14.9661L8.1922 17.7658C7.93593 18.0938 7.93593 18.6256 8.1922 18.9536L10.3797 21.7533C10.7906 22.2792 11.5 21.9097 11.5 21.1594V19.4796H21.3438C21.7062 19.4796 22 19.1036 22 18.6397V18.0798C22 17.6159 21.7062 17.2399 21.3438 17.2399Z" fill="black"/>
</svg>
