<svg width="30" height="30" viewBox="0 0 30 30" fill="none" xmlns="http://www.w3.org/2000/svg">
<rect width="30" height="30" rx="15" fill="#5F2FC0"/>
<path d="M14.3615 14.3612C14.0087 14.7141 14.0087 15.2859 14.3615 15.6385C14.7141 15.9913 15.2862 15.9913 15.6387 15.6385C15.9916 15.2856 15.9916 14.7138 15.6387 14.3612C15.2859 14.0087 14.7141 14.0087 14.3615 14.3612ZM15 8C11.1339 8 8 11.1339 8 15C8 18.8661 11.1339 22 15 22C18.8661 22 22 18.8661 22 15C22 11.1339 18.8661 8 15 8ZM18.5604 12.1788L16.6983 16.2532C16.6083 16.4503 16.4503 16.6083 16.2532 16.6983L12.1791 18.5604C11.7092 18.7752 11.2248 18.2908 11.4396 17.8209L13.3019 13.7465C13.392 13.5495 13.55 13.3914 13.7471 13.3014L17.8212 11.4393C18.2911 11.2248 18.7752 11.7089 18.5604 12.1788Z" fill="black"/>
</svg>
