<svg width="30" height="30" viewBox="0 0 30 30" fill="none" xmlns="http://www.w3.org/2000/svg">
<rect width="30" height="30" rx="15" fill="#5F2FC0"/>
<path d="M15 15.875C17.1738 15.875 18.9375 14.1113 18.9375 11.9375C18.9375 9.76367 17.1738 8 15 8C12.8262 8 11.0625 9.76367 11.0625 11.9375C11.0625 14.1113 12.8262 15.875 15 15.875ZM18.5 16.75H16.9934C16.3863 17.0289 15.7109 17.1875 15 17.1875C14.2891 17.1875 13.6164 17.0289 13.0066 16.75H11.5C9.5668 16.75 8 18.3168 8 20.25V20.6875C8 21.4121 8.58789 22 9.3125 22H20.6875C21.4121 22 22 21.4121 22 20.6875V20.25C22 18.3168 20.4332 16.75 18.5 16.75Z" fill="black"/>
</svg>
