<svg width="22" height="25" viewBox="0 0 22 25" fill="none" xmlns="http://www.w3.org/2000/svg">
<path d="M14.0031 17.0693L14.3031 17.2568L14.5797 17.0362C15.2954 16.4657 16.2009 16.125 17.1875 16.125C19.5002 16.125 21.375 17.9998 21.375 20.3125C21.375 22.6252 19.5002 24.5 17.1875 24.5C14.8748 24.5 13 22.6252 13 20.3125V20.3124C12.9999 20.0065 13.0332 19.7016 13.0993 19.4029L13.1757 19.0581L12.8761 18.8709L7.87193 15.7432L7.57191 15.5557L7.29526 15.7763C6.57962 16.3468 5.67407 16.6875 4.6875 16.6875C2.37482 16.6875 0.5 14.8127 0.5 12.5C0.5 10.1873 2.37482 8.3125 4.6875 8.3125C5.67407 8.3125 6.57962 8.65325 7.29526 9.22374L7.57191 9.44428L7.87193 9.25676L12.8761 6.12913L13.1757 5.94191L13.0993 5.59703C13.0345 5.30429 13 5.0001 13 4.6875C13 2.37482 14.8748 0.5 17.1875 0.5C19.5002 0.5 21.375 2.37482 21.375 4.6875C21.375 7.00018 19.5002 8.875 17.1875 8.875C16.2009 8.875 15.2954 8.53425 14.5798 7.96373L14.3031 7.74317L14.0031 7.93069L8.99887 11.0583L8.69943 11.2455L8.77565 11.5903C8.90813 12.1895 8.90813 12.8105 8.77565 13.4097L8.69943 13.7545L8.99887 13.9416L14.0031 17.0693Z" fill="#B33E92" stroke="#1F607A"/>
</svg>
