<svg width="81" height="83" viewBox="0 0 81 83" fill="none" xmlns="http://www.w3.org/2000/svg">
<path d="M44.6749 45.5678L43.4037 43.5363C42.8654 42.6762 42.8654 41.2852 43.4037 40.4342L54.5294 22.6451C55.0677 21.785 55.938 21.785 56.4706 22.6451L67.5963 40.4251C68.1346 41.2852 68.1346 42.6762 67.5963 43.5272L66.3251 45.5586C65.7812 46.428 64.8936 46.4097 64.3611 45.522L57.7933 34.5045V60.8038C57.7933 62.0209 57.1806 63 56.419 63H54.5867C53.8251 63 53.2124 62.0209 53.2124 60.8038V34.5045L46.6389 45.5312C46.1064 46.428 45.2189 46.4463 44.6749 45.5678Z" fill="black"/>
<path d="M36.3255 39.4322L37.5964 41.4637C38.1345 42.3238 38.1345 43.7148 37.5964 44.5658L26.4732 62.3549C25.9351 63.215 25.0649 63.215 24.5325 62.3549L13.4036 44.5658C12.8655 43.7056 12.8655 42.3147 13.4036 41.4637L14.6745 39.4322C15.2183 38.5629 16.1057 38.5812 16.6381 39.4688L23.2101 50.4955V24.1962C23.2101 22.9791 23.8226 22 24.584 22H26.416C27.1774 22 27.7899 22.9791 27.7899 24.1962V50.4955L34.3619 39.4688C34.8943 38.572 35.7817 38.5537 36.3255 39.4322Z" fill="black"/>
<path d="M80 41.5C80 63.8907 62.2924 82 40.5 82C18.7076 82 1 63.8907 1 41.5C1 19.1093 18.7076 1 40.5 1C62.2924 1 80 19.1093 80 41.5Z" stroke="black" stroke-width="2"/>
</svg>
