<svg width="30" height="30" viewBox="0 0 30 30" fill="none" xmlns="http://www.w3.org/2000/svg">
<rect width="30" height="30" rx="15" fill="#5F2FC0"/>
<path d="M20.6109 11H10.1875C9.94578 11 9.75 10.7763 9.75 10.5C9.75 10.2237 9.94578 10 10.1875 10H20.6875C20.9292 10 21.125 9.77625 21.125 9.5C21.125 8.67156 20.5374 8 19.8125 8H9.75C8.7834 8 8 8.89531 8 10V20C8 21.1047 8.7834 22 9.75 22H20.6109C21.3771 22 22 21.3272 22 20.5V12.5C22 11.6728 21.3771 11 20.6109 11ZM19.375 17.5C18.8918 17.5 18.5 17.0522 18.5 16.5C18.5 15.9478 18.8918 15.5 19.375 15.5C19.8582 15.5 20.25 15.9478 20.25 16.5C20.25 17.0522 19.8582 17.5 19.375 17.5Z" fill="black"/>
</svg>
